<svg width="144" height="37" viewBox="0 0 144 37" fill="none" xmlns="http://www.w3.org/2000/svg">
<path d="M18.76 6.54C18.5733 6.84666 18.38 7.07333 18.18 7.22C17.9933 7.35333 17.7467 7.42 17.44 7.42C17.1467 7.42 16.8267 7.32 16.48 7.12C16.1467 6.90667 15.7533 6.68 15.3 6.44C14.8467 6.2 14.3267 5.98 13.74 5.78C13.1533 5.56666 12.4667 5.46 11.68 5.46C10.2933 5.46 9.25333 5.77333 8.56 6.4C7.86667 7.01333 7.52 7.82 7.52 8.82C7.52 9.46 7.70667 9.99333 8.08 10.42C8.46667 10.8333 8.96667 11.1933 9.58 11.5C10.2067 11.8067 10.9133 12.08 11.7 12.32C12.4867 12.56 13.2933 12.8267 14.12 13.12C14.9467 13.4 15.7533 13.7333 16.54 14.12C17.3267 14.5067 18.0267 14.9933 18.64 15.58C19.2667 16.1667 19.7667 16.8867 20.14 17.74C20.5267 18.58 20.72 19.6067 20.72 20.82C20.72 22.14 20.4867 23.38 20.02 24.54C19.5667 25.6867 18.9067 26.6933 18.04 27.56C17.1733 28.4133 16.1 29.0867 14.82 29.58C13.5533 30.0733 12.1133 30.32 10.5 30.32C9.58 30.32 8.66 30.2267 7.74 30.04C6.83333 29.8533 5.95333 29.5933 5.1 29.26C4.26 28.9267 3.46667 28.5267 2.72 28.06C1.97333 27.5933 1.32 27.0733 0.76 26.5L2.52 23.66C2.66667 23.4467 2.86 23.2733 3.1 23.14C3.34 22.9933 3.59333 22.92 3.86 22.92C4.22 22.92 4.6 23.0533 5 23.32C5.4 23.5867 5.86 23.88 6.38 24.2C6.9 24.52 7.5 24.8133 8.18 25.08C8.87333 25.3467 9.7 25.48 10.66 25.48C12.06 25.48 13.14 25.16 13.9 24.52C14.6733 23.88 15.06 22.9267 15.06 21.66C15.06 20.9267 14.8667 20.3333 14.48 19.88C14.1067 19.4267 13.6133 19.0467 13 18.74C12.3867 18.4333 11.6867 18.1733 10.9 17.96C10.1133 17.7333 9.30667 17.4867 8.48 17.22C7.65333 16.9533 6.84667 16.6333 6.06 16.26C5.27333 15.8867 4.57333 15.3933 3.96 14.78C3.34667 14.1667 2.84667 13.4067 2.46 12.5C2.08667 11.5933 1.9 10.4667 1.9 9.12C1.9 8.04 2.11333 6.99333 2.54 5.98C2.96667 4.96667 3.59333 4.06667 4.42 3.28C5.24667 2.49333 6.26 1.86 7.46 1.38C8.67333 0.899998 10.06 0.659997 11.62 0.659997C13.3667 0.659997 14.98 0.933331 16.46 1.48C17.9533 2.01333 19.2133 2.76 20.24 3.72L18.76 6.54ZM29.4797 24.56C29.9997 25.16 30.5597 25.58 31.1597 25.82C31.773 26.06 32.4264 26.18 33.1197 26.18C33.7864 26.18 34.393 26.0533 34.9397 25.8C35.4864 25.5467 35.953 25.1533 36.3397 24.62C36.7397 24.0733 37.0464 23.38 37.2597 22.54C37.473 21.7 37.5797 20.7 37.5797 19.54C37.5797 18.3933 37.4864 17.42 37.2997 16.62C37.1264 15.82 36.873 15.1733 36.5397 14.68C36.2197 14.1867 35.8264 13.8333 35.3597 13.62C34.893 13.3933 34.373 13.28 33.7997 13.28C32.8264 13.28 32.0064 13.4733 31.3397 13.86C30.6864 14.2333 30.0664 14.7867 29.4797 15.52V24.56ZM29.1597 12.08C29.573 11.6267 30.013 11.2133 30.4797 10.84C30.9464 10.4533 31.4464 10.1267 31.9797 9.86C32.513 9.58 33.0864 9.36667 33.6997 9.22C34.313 9.06 34.9797 8.98 35.6997 8.98C36.8064 8.98 37.8197 9.22 38.7397 9.7C39.673 10.1667 40.473 10.8533 41.1397 11.76C41.8064 12.6533 42.3264 13.7533 42.6997 15.06C43.073 16.3667 43.2597 17.86 43.2597 19.54C43.2597 21.0867 43.0464 22.52 42.6197 23.84C42.2064 25.1467 41.613 26.28 40.8397 27.24C40.0664 28.2 39.133 28.9533 38.0397 29.5C36.9597 30.0333 35.753 30.3 34.4197 30.3C33.2997 30.3 32.3464 30.1333 31.5597 29.8C30.7864 29.4667 30.093 29.0133 29.4797 28.44V36.66H23.9597V9.38H27.3597C28.053 9.38 28.513 9.7 28.7397 10.34L29.1597 12.08ZM52.3713 0.179999V30H46.8513V0.179999H52.3713ZM70.0475 17.26C70.0475 16.6867 69.9675 16.14 69.8075 15.62C69.6608 15.1 69.4208 14.64 69.0875 14.24C68.7542 13.84 68.3342 13.5267 67.8275 13.3C67.3208 13.06 66.7142 12.94 66.0075 12.94C64.6875 12.94 63.6542 13.3133 62.9075 14.06C62.1608 14.8067 61.6742 15.8733 61.4475 17.26H70.0475ZM61.3675 20.54C61.5408 22.4733 62.0875 23.8867 63.0075 24.78C63.9408 25.6733 65.1542 26.12 66.6475 26.12C67.4075 26.12 68.0608 26.0333 68.6075 25.86C69.1675 25.6733 69.6542 25.4733 70.0675 25.26C70.4942 25.0333 70.8742 24.8333 71.2075 24.66C71.5542 24.4733 71.8942 24.38 72.2275 24.38C72.6542 24.38 72.9875 24.54 73.2275 24.86L74.8275 26.86C74.2408 27.54 73.5942 28.1067 72.8875 28.56C72.1808 29 71.4475 29.3533 70.6875 29.62C69.9275 29.8733 69.1608 30.0467 68.3875 30.14C67.6142 30.2467 66.8675 30.3 66.1475 30.3C64.7075 30.3 63.3608 30.0667 62.1075 29.6C60.8675 29.12 59.7808 28.42 58.8475 27.5C57.9275 26.5667 57.2008 25.4133 56.6675 24.04C56.1342 22.6667 55.8675 21.0733 55.8675 19.26C55.8675 17.86 56.0942 16.54 56.5475 15.3C57.0142 14.06 57.6808 12.98 58.5475 12.06C59.4142 11.14 60.4675 10.4133 61.7075 9.88C62.9475 9.33333 64.3475 9.06 65.9075 9.06C67.2275 9.06 68.4408 9.27333 69.5475 9.7C70.6675 10.1133 71.6275 10.72 72.4275 11.52C73.2408 12.32 73.8675 13.3067 74.3075 14.48C74.7608 15.64 74.9875 16.9667 74.9875 18.46C74.9875 18.8733 74.9675 19.2133 74.9275 19.48C74.8875 19.7467 74.8208 19.96 74.7275 20.12C74.6342 20.28 74.5075 20.3933 74.3475 20.46C74.1875 20.5133 73.9808 20.54 73.7275 20.54H61.3675ZM83.5328 11.78C83.9461 11.38 84.3728 11.0133 84.8128 10.68C85.2661 10.3467 85.7395 10.06 86.2328 9.82C86.7395 9.58 87.2795 9.39333 87.8528 9.26C88.4395 9.12667 89.0728 9.06 89.7528 9.06C90.8728 9.06 91.8661 9.25333 92.7328 9.64C93.5995 10.0267 94.3261 10.5667 94.9128 11.26C95.5128 11.9533 95.9595 12.78 96.2528 13.74C96.5595 14.7 96.7128 15.7533 96.7128 16.9V30H91.2128V16.9C91.2128 15.7533 90.9461 14.8667 90.4128 14.24C89.8795 13.6 89.0928 13.28 88.0528 13.28C87.2795 13.28 86.5528 13.4467 85.8728 13.78C85.1928 14.1133 84.5461 14.58 83.9328 15.18V30H78.4128V9.38H81.8128C82.5061 9.38 82.9661 9.7 83.1928 10.34L83.5328 11.78ZM113.848 14.74C113.328 14.14 112.761 13.72 112.148 13.48C111.548 13.24 110.908 13.12 110.228 13.12C109.561 13.12 108.955 13.2467 108.408 13.5C107.861 13.7533 107.388 14.1533 106.988 14.7C106.601 15.2333 106.301 15.92 106.088 16.76C105.875 17.6 105.768 18.6 105.768 19.76C105.768 20.9067 105.855 21.88 106.028 22.68C106.201 23.48 106.448 24.1267 106.768 24.62C107.101 25.1133 107.501 25.4733 107.968 25.7C108.435 25.9133 108.955 26.02 109.528 26.02C110.501 26.02 111.315 25.8267 111.968 25.44C112.635 25.0533 113.261 24.5067 113.848 23.8V14.74ZM119.368 0.179999V30H115.968C115.261 30 114.808 29.68 114.608 29.04L114.148 27.24C113.735 27.6933 113.295 28.1067 112.828 28.48C112.375 28.8533 111.881 29.18 111.348 29.46C110.815 29.7267 110.241 29.9333 109.628 30.08C109.015 30.2267 108.348 30.3 107.628 30.3C106.521 30.3 105.508 30.0667 104.588 29.6C103.668 29.1333 102.868 28.4533 102.188 27.56C101.521 26.6533 101.001 25.5467 100.628 24.24C100.255 22.9333 100.068 21.44 100.068 19.76C100.068 18.2267 100.275 16.8 100.688 15.48C101.115 14.16 101.715 13.02 102.488 12.06C103.261 11.1 104.195 10.3467 105.288 9.8C106.381 9.25333 107.595 8.98 108.928 8.98C110.048 8.98 110.988 9.14667 111.748 9.48C112.521 9.81333 113.221 10.2667 113.848 10.84V0.179999H119.368ZM143.08 9.38L131.96 35.54C131.786 35.9133 131.573 36.1933 131.32 36.38C131.08 36.5667 130.693 36.66 130.16 36.66H126.06L129.96 28.34L121.68 9.38H126.52C126.96 9.38 127.3 9.48 127.54 9.68C127.78 9.88 127.953 10.1133 128.06 10.38L131.98 20.24C132.126 20.6267 132.253 21.02 132.36 21.42C132.48 21.8067 132.593 22.1933 132.7 22.58C132.94 21.7933 133.213 21.0067 133.52 20.22L137.16 10.38C137.266 10.0867 137.46 9.84667 137.74 9.66C138.02 9.47333 138.326 9.38 138.66 9.38H143.08Z" fill="#00E580"/>
</svg>
