<svg width="16" height="16" viewBox="0 0 16 16" fill="none" xmlns="http://www.w3.org/2000/svg">
<g clip-path="url(#clip0_116_2)">
<path d="M11.3009 4.616C11.2262 4.73867 11.1489 4.82933 11.0689 4.888C10.9942 4.94133 10.8955 4.968 10.7729 4.968C10.6555 4.968 10.5275 4.928 10.3889 4.848C10.2555 4.76267 10.0982 4.672 9.91688 4.576C9.73554 4.48 9.52754 4.392 9.29288 4.312C9.05821 4.22667 8.78354 4.184 8.46888 4.184C7.91421 4.184 7.49821 4.30933 7.22088 4.56C6.94354 4.80533 6.80488 5.128 6.80488 5.528C6.80488 5.784 6.87954 5.99733 7.02888 6.168C7.18354 6.33333 7.38354 6.47733 7.62888 6.6C7.87954 6.72267 8.16221 6.832 8.47688 6.928C8.79154 7.024 9.11421 7.13067 9.44488 7.248C9.77554 7.36 10.0982 7.49333 10.4129 7.648C10.7275 7.80267 11.0075 7.99733 11.2529 8.232C11.5035 8.46667 11.7035 8.75467 11.8529 9.096C12.0075 9.432 12.0849 9.84267 12.0849 10.328C12.0849 10.856 11.9915 11.352 11.8049 11.816C11.6235 12.2747 11.3595 12.6773 11.0129 13.024C10.6662 13.3653 10.2369 13.6347 9.72488 13.832C9.21821 14.0293 8.64221 14.128 7.99688 14.128C7.62888 14.128 7.26088 14.0907 6.89288 14.016C6.53021 13.9413 6.17821 13.8373 5.83688 13.704C5.50088 13.5707 5.18354 13.4107 4.88488 13.224C4.58621 13.0373 4.32488 12.8293 4.10088 12.6L4.80488 11.464C4.86354 11.3787 4.94088 11.3093 5.03688 11.256C5.13288 11.1973 5.23421 11.168 5.34088 11.168C5.48488 11.168 5.63688 11.2213 5.79688 11.328C5.95688 11.4347 6.14088 11.552 6.34888 11.68C6.55688 11.808 6.79688 11.9253 7.06888 12.032C7.34621 12.1387 7.67688 12.192 8.06088 12.192C8.62088 12.192 9.05288 12.064 9.35688 11.808C9.66621 11.552 9.82088 11.1707 9.82088 10.664C9.82088 10.3707 9.74354 10.1333 9.58888 9.952C9.43954 9.77067 9.24221 9.61867 8.99688 9.496C8.75154 9.37333 8.47154 9.26933 8.15688 9.184C7.84221 9.09333 7.51954 8.99467 7.18888 8.888C6.85821 8.78133 6.53554 8.65333 6.22088 8.504C5.90621 8.35467 5.62621 8.15733 5.38088 7.912C5.13554 7.66667 4.93554 7.36267 4.78088 7C4.63154 6.63733 4.55688 6.18667 4.55688 5.648C4.55688 5.216 4.64221 4.79733 4.81288 4.392C4.98354 3.98667 5.23421 3.62667 5.56488 3.312C5.89554 2.99733 6.30088 2.744 6.78088 2.552C7.26621 2.36 7.82088 2.264 8.44488 2.264C9.14354 2.264 9.78888 2.37333 10.3809 2.592C10.9782 2.80533 11.4822 3.104 11.8929 3.488L11.3009 4.616Z" fill="#00E580"/>
</g>
<defs>
<clipPath id="clip0_116_2">
<rect width="16" height="16" fill="white"/>
</clipPath>
</defs>
</svg>
