<svg width="32" height="32" viewBox="0 0 32 32" fill="none" xmlns="http://www.w3.org/2000/svg">
<g clip-path="url(#clip0_116_2)">
<path d="M23.427 7.886C23.259 8.162 23.085 8.366 22.905 8.498C22.737 8.618 22.515 8.678 22.239 8.678C21.975 8.678 21.687 8.588 21.375 8.408C21.075 8.216 20.721 8.012 20.313 7.796C19.905 7.58 19.437 7.382 18.909 7.202C18.381 7.01 17.763 6.914 17.055 6.914C15.807 6.914 14.871 7.196 14.247 7.76C13.623 8.312 13.311 9.038 13.311 9.938C13.311 10.514 13.479 10.994 13.815 11.378C14.163 11.75 14.613 12.074 15.165 12.35C15.729 12.626 16.365 12.872 17.073 13.088C17.781 13.304 18.507 13.544 19.251 13.808C19.995 14.06 20.721 14.36 21.429 14.708C22.137 15.056 22.767 15.494 23.319 16.022C23.883 16.55 24.333 17.198 24.669 17.966C25.017 18.722 25.191 19.646 25.191 20.738C25.191 21.926 24.981 23.042 24.561 24.086C24.153 25.118 23.559 26.024 22.779 26.804C21.999 27.572 21.033 28.178 19.881 28.622C18.741 29.066 17.445 29.288 15.993 29.288C15.165 29.288 14.337 29.204 13.509 29.036C12.693 28.868 11.901 28.634 11.133 28.334C10.377 28.034 9.66297 27.674 8.99097 27.254C8.31897 26.834 7.73097 26.366 7.22697 25.85L8.81097 23.294C8.94297 23.102 9.11697 22.946 9.33297 22.826C9.54897 22.694 9.77697 22.628 10.017 22.628C10.341 22.628 10.683 22.748 11.043 22.988C11.403 23.228 11.817 23.492 12.285 23.78C12.753 24.068 13.293 24.332 13.905 24.572C14.529 24.812 15.273 24.932 16.137 24.932C17.397 24.932 18.369 24.644 19.053 24.068C19.749 23.492 20.097 22.634 20.097 21.494C20.097 20.834 19.923 20.3 19.575 19.892C19.239 19.484 18.795 19.142 18.243 18.866C17.691 18.59 17.061 18.356 16.353 18.164C15.645 17.96 14.919 17.738 14.175 17.498C13.431 17.258 12.705 16.97 11.997 16.634C11.289 16.298 10.659 15.854 10.107 15.302C9.55497 14.75 9.10497 14.066 8.75697 13.25C8.42097 12.434 8.25297 11.42 8.25297 10.208C8.25297 9.236 8.44497 8.294 8.82897 7.382C9.21297 6.47 9.77697 5.66 10.521 4.952C11.265 4.244 12.177 3.674 13.257 3.242C14.349 2.81 15.597 2.594 17.001 2.594C18.573 2.594 20.025 2.84 21.357 3.332C22.701 3.812 23.835 4.484 24.759 5.348L23.427 7.886Z" fill="#00E580"/>
</g>
<defs>
<clipPath id="clip0_116_2">
<rect width="32" height="32" fill="white"/>
</clipPath>
</defs>
</svg>
